<svg width="14" height="15" viewBox="0 0 14 15" fill="none" xmlns="http://www.w3.org/2000/svg">
<path id="Vector" d="M10.2949 7.9949C10.3601 7.93004 10.4119 7.85293 10.4472 7.768C10.4825 7.68306 10.5007 7.59199 10.5007 7.5C10.5007 7.40801 10.4825 7.31694 10.4472 7.232C10.4119 7.14707 10.3601 7.06996 10.2949 7.0051L7.3248 4.035C7.19278 3.90749 7.01596 3.83693 6.83242 3.83853C6.64888 3.84012 6.47331 3.91374 6.34353 4.04353C6.21374 4.17331 6.14012 4.34888 6.13853 4.53242C6.13693 4.71596 6.20749 4.89278 6.335 5.0248L8.1102 6.8H4.2C4.01435 6.8 3.8363 6.87375 3.70503 7.00503C3.57375 7.1363 3.5 7.31435 3.5 7.5C3.5 7.68565 3.57375 7.8637 3.70503 7.99497C3.8363 8.12625 4.01435 8.2 4.2 8.2H8.1102L6.335 9.9752C6.20749 10.1072 6.13693 10.284 6.13853 10.4676C6.14012 10.6511 6.21374 10.8267 6.34353 10.9565C6.47331 11.0863 6.64888 11.1599 6.83242 11.1615C7.01596 11.1631 7.19278 11.0925 7.3248 10.965L10.2949 7.9949ZM7 14.5C3.1339 14.5 0 11.3661 0 7.5C0 3.6339 3.1339 0.5 7 0.5C10.8661 0.5 14 3.6339 14 7.5C14 11.3661 10.8661 14.5 7 14.5Z" fill="#F9CF3B"/>
</svg>
