<svg width="20" height="20" viewBox="0 0 20 20" fill="none" xmlns="http://www.w3.org/2000/svg">
<g id="ico-clock">
<path id="Vector" d="M10.0003 4.99984C9.77932 4.99984 9.56735 5.08764 9.41107 5.24392C9.25479 5.4002 9.167 5.61216 9.167 5.83317V8.5565L8.252 8.02817C8.0607 7.91941 7.83414 7.89072 7.62178 7.94838C7.40941 8.00604 7.22846 8.14535 7.11843 8.33593C7.0084 8.5265 6.97822 8.75286 7.03446 8.9656C7.09071 9.17835 7.22882 9.36021 7.41866 9.4715L9.58366 10.7215C9.71034 10.7946 9.85404 10.8331 10.0003 10.8331C10.1466 10.8332 10.2903 10.7946 10.417 10.7215C10.5437 10.6484 10.6489 10.5432 10.722 10.4165C10.7952 10.2898 10.8337 10.1461 10.8337 9.99984V5.83317C10.8337 5.61216 10.7459 5.4002 10.5896 5.24392C10.4333 5.08764 10.2213 4.99984 10.0003 4.99984ZM10.0003 1.6665C8.35215 1.6665 6.74099 2.15525 5.37058 3.07092C4.00017 3.9866 2.93206 5.28809 2.30133 6.81081C1.6706 8.33353 1.50558 10.0091 1.82712 11.6256C2.14866 13.2421 2.94234 14.727 4.10777 15.8924C5.27321 17.0578 6.75807 17.8515 8.37458 18.173C9.99109 18.4946 11.6666 18.3296 13.1894 17.6988C14.7121 17.0681 16.0136 16 16.9292 14.6296C17.8449 13.2592 18.3337 11.648 18.3337 9.99984C18.3312 7.79044 17.4525 5.67224 15.8902 4.10996C14.3279 2.54768 12.2097 1.66893 10.0003 1.6665ZM10.0003 16.6665C8.68179 16.6665 7.39286 16.2755 6.29653 15.543C5.2002 14.8104 4.34572 13.7692 3.84113 12.5511C3.33655 11.3329 3.20453 9.99244 3.46176 8.69924C3.719 7.40603 4.35393 6.21814 5.28628 5.28579C6.21863 4.35344 7.40652 3.7185 8.69973 3.46127C9.99293 3.20403 11.3334 3.33606 12.5516 3.84064C13.7697 4.34522 14.8109 5.19971 15.5435 6.29604C16.276 7.39236 16.667 8.6813 16.667 9.99984C16.6648 11.7673 15.9617 13.4617 14.7119 14.7114C13.4622 15.9612 11.7678 16.6643 10.0003 16.6665Z" fill="#1A1A1A"/>
</g>
</svg>
