<svg width="20" height="20" viewBox="0 0 20 20" fill="none" xmlns="http://www.w3.org/2000/svg">
<path fill-rule="evenodd" clip-rule="evenodd" d="M11.0679 2.62025C11.1104 2.23757 11.4551 1.96181 11.8377 2.00432C13.4097 2.17895 14.8755 2.88288 15.9945 4.00053C17.1136 5.11818 17.8194 6.58312 17.996 8.15482C18.039 8.53744 17.7637 8.88247 17.381 8.92546C16.9984 8.96846 16.6534 8.69314 16.6104 8.31051C16.4691 7.05315 15.9045 5.8812 15.0092 4.98708C14.114 4.09296 12.9413 3.52982 11.6838 3.39012C11.3011 3.34761 11.0254 3.00292 11.0679 2.62025ZM11.0765 5.35236C11.1502 4.97445 11.5164 4.72787 11.8943 4.8016C12.7114 4.96103 13.4624 5.36066 14.0511 5.94935C14.6397 6.53804 15.0394 7.28901 15.1988 8.10614C15.2725 8.48404 15.026 8.85016 14.648 8.92389C14.2701 8.99763 13.904 8.75104 13.8303 8.37314C13.724 7.82839 13.4576 7.32774 13.0651 6.93528C12.6727 6.54282 12.172 6.2764 11.6273 6.17012C11.2494 6.09639 11.0028 5.73026 11.0765 5.35236Z" fill="#1A1A1A"/>
<path fill-rule="evenodd" clip-rule="evenodd" d="M8.53859 7.18994C8.96528 7.66291 8.82999 8.19875 8.45272 8.70717C8.36327 8.82771 8.26017 8.94648 8.13564 9.07736C8.07587 9.14018 8.02927 9.18742 7.93178 9.285C7.71038 9.50662 7.52427 9.69283 7.37343 9.84366C7.30028 9.9168 7.79969 10.9148 8.76889 11.8849C9.73757 12.8545 10.7355 13.3543 10.809 13.2808L11.3669 12.7225C11.6742 12.4149 11.8369 12.2665 12.0605 12.1198C12.5254 11.8149 13.0324 11.732 13.46 12.1144C14.8562 13.1131 15.6463 13.726 16.0334 14.1281C16.7884 14.9126 16.6894 16.1201 16.0377 16.809C15.8117 17.0479 15.5251 17.3346 15.1867 17.6609C13.1393 19.7093 8.81855 18.4627 5.50713 15.148C2.19496 11.8326 0.949013 7.5114 2.99204 5.46727C3.35882 5.09473 3.47975 4.97386 3.83697 4.62188C4.50204 3.96656 5.76526 3.86396 6.53318 4.62253C6.9371 5.02154 7.58106 5.85009 8.53859 7.18994ZM12.3963 13.7522L11.8382 14.3106C10.8896 15.2597 9.27408 14.4507 7.73943 12.9145C6.20373 11.3773 5.39559 9.76238 6.34452 8.81353C6.49515 8.6629 6.68109 8.47686 6.90232 8.25542C6.99158 8.16607 7.03241 8.12468 7.08142 8.07317C7.14819 8.003 7.20306 7.94136 7.24699 7.88682C6.39839 6.70473 5.82152 5.9661 5.51054 5.6589C5.34994 5.50025 4.99031 5.52946 4.85829 5.65955C4.50618 6.0065 4.39044 6.12218 4.02513 6.49319C2.71126 7.80779 3.71708 11.2962 6.53659 14.1184C9.35522 16.9398 12.8431 17.9461 14.1669 16.6217C14.5001 16.3003 14.7716 16.0287 14.9806 15.8078C15.1316 15.6482 15.1586 15.3188 14.9849 15.1383C14.6956 14.8377 13.9872 14.2854 12.7641 13.4071C12.675 13.4788 12.5654 13.5829 12.3963 13.7522Z" fill="#1A1A1A"/>
</svg>
