<svg width="24" height="25" viewBox="0 0 24 25" fill="none" xmlns="http://www.w3.org/2000/svg">
<g id="ico-map">
<path id="Vector" fill-rule="evenodd" clip-rule="evenodd" d="M17.861 3.66321L18.021 3.71721L19.223 4.11721C19.686 4.27221 20.093 4.40721 20.414 4.55721C20.762 4.71921 21.081 4.92721 21.325 5.26621C21.569 5.60421 21.666 5.97321 21.71 6.35421C21.75 6.70721 21.75 7.13521 21.75 7.62421V15.8362C21.75 16.5342 21.75 17.1232 21.696 17.5892C21.64 18.0732 21.514 18.5512 21.161 18.9372C20.952 19.166 20.6981 19.3492 20.415 19.4752C19.937 19.6872 19.444 19.6552 18.967 19.5562C18.507 19.4602 17.949 19.2742 17.287 19.0532L17.244 19.0392C16.124 18.6652 15.739 18.5492 15.367 18.5622C15.2184 18.5673 15.0707 18.587 14.926 18.6212C14.563 18.7062 14.223 18.9202 13.24 19.5752L11.858 20.4972L11.718 20.5902C10.656 21.2992 9.918 21.7912 9.054 21.9072C8.191 22.0232 7.349 21.7422 6.139 21.3372L5.979 21.2842L4.777 20.8842C4.314 20.7292 3.907 20.5942 3.586 20.4442C3.238 20.2822 2.919 20.0742 2.675 19.7342C2.431 19.3962 2.334 19.0282 2.29 18.6462C2.25 18.2932 2.25 17.8662 2.25 17.3772V9.16521C2.25 8.46621 2.25 7.87721 2.304 7.41221C2.36 6.92821 2.486 6.45021 2.839 6.06421C3.04797 5.83543 3.30194 5.65227 3.585 5.52621C4.063 5.31321 4.557 5.34521 5.033 5.44521C5.493 5.54021 6.051 5.72721 6.713 5.94821L6.756 5.96221C7.876 6.33521 8.261 6.45221 8.634 6.43921C8.78225 6.4341 8.92964 6.41434 9.074 6.38021C9.437 6.29421 9.777 6.08021 10.76 5.42621L12.142 4.50421L12.282 4.41021C13.344 3.70221 14.082 3.21021 14.945 3.09421C15.809 2.97821 16.651 3.25821 17.861 3.66321ZM15.75 4.60721V17.0802C16.286 17.1382 16.85 17.3262 17.593 17.5742L17.718 17.6162C18.435 17.8552 18.91 18.0122 19.273 18.0882C19.629 18.1622 19.75 18.1282 19.805 18.1042C19.8994 18.0623 19.9842 18.0014 20.054 17.9252C20.094 17.8812 20.164 17.7762 20.206 17.4152C20.249 17.0472 20.25 16.5462 20.25 15.7912V7.66321C20.25 7.12321 20.249 6.78321 20.22 6.52521C20.192 6.28621 20.148 6.19721 20.108 6.14321C20.069 6.08921 19.999 6.01821 19.782 5.91721C19.546 5.80721 19.222 5.69921 18.712 5.52821L17.547 5.14021C16.66 4.84421 16.134 4.67721 15.75 4.60721ZM14.25 17.2602V4.93421C13.939 5.11421 13.54 5.37521 12.974 5.75221L11.592 6.67421L11.482 6.74721C10.794 7.20721 10.281 7.54921 9.75 7.74121V20.0672C10.061 19.8872 10.46 19.6252 11.026 19.2482L12.408 18.3272L12.518 18.2542C13.206 17.7942 13.719 17.4522 14.25 17.2602ZM8.25 20.3952V7.92021C7.714 7.86221 7.15 7.67421 6.407 7.42621L6.282 7.38421C5.565 7.14521 5.09 6.98821 4.726 6.91221C4.371 6.83821 4.25 6.87121 4.196 6.89521C4.10111 6.93727 4.01598 6.99856 3.946 7.07521C3.906 7.11821 3.836 7.22321 3.794 7.58421C3.751 7.95221 3.75 8.45421 3.75 9.20921V17.3372C3.75 17.8772 3.751 18.2172 3.78 18.4752C3.808 18.7142 3.852 18.8022 3.892 18.8572C3.931 18.9112 4.001 18.9822 4.218 19.0832C4.454 19.1932 4.778 19.3012 5.288 19.4722L6.453 19.8602C7.34 20.1552 7.865 20.3232 8.25 20.3942" fill="#1A1A1A"/>
</g>
</svg>
