<svg width="52" height="68" viewBox="0 0 52 68" fill="none" xmlns="http://www.w3.org/2000/svg">
<path d="M46.6172 64.3486H44.7666V63.377H46.6172C46.9395 63.377 47.1999 63.3249 47.3984 63.2207C47.597 63.1165 47.7419 62.9733 47.833 62.791C47.9274 62.6055 47.9746 62.3939 47.9746 62.1562C47.9746 61.9316 47.9274 61.7217 47.833 61.5264C47.7419 61.3278 47.597 61.1683 47.3984 61.0479C47.1999 60.9274 46.9395 60.8672 46.6172 60.8672H45.1426V67H43.917V59.8906H46.6172C47.1673 59.8906 47.6344 59.9883 48.0186 60.1836C48.4059 60.3757 48.7005 60.6426 48.9023 60.9844C49.1042 61.3229 49.2051 61.7103 49.2051 62.1465C49.2051 62.6055 49.1042 62.9993 48.9023 63.3281C48.7005 63.6569 48.4059 63.9092 48.0186 64.085C47.6344 64.2607 47.1673 64.3486 46.6172 64.3486Z" fill="#4C4C4C"/>
<path d="M42.6914 63.25V63.6406C42.6914 64.1777 42.6214 64.6595 42.4814 65.0859C42.3415 65.5124 42.1413 65.8753 41.8809 66.1748C41.6237 66.4743 41.3145 66.7038 40.9531 66.8633C40.5918 67.0195 40.1914 67.0977 39.752 67.0977C39.3158 67.0977 38.917 67.0195 38.5557 66.8633C38.1976 66.7038 37.8867 66.4743 37.623 66.1748C37.3594 65.8753 37.1543 65.5124 37.0078 65.0859C36.8646 64.6595 36.793 64.1777 36.793 63.6406V63.25C36.793 62.7129 36.8646 62.2327 37.0078 61.8096C37.151 61.3831 37.3529 61.0202 37.6133 60.7207C37.877 60.418 38.1878 60.1885 38.5459 60.0322C38.9072 59.8727 39.306 59.793 39.7422 59.793C40.1816 59.793 40.582 59.8727 40.9434 60.0322C41.3047 60.1885 41.6156 60.418 41.876 60.7207C42.1364 61.0202 42.3366 61.3831 42.4766 61.8096C42.6198 62.2327 42.6914 62.7129 42.6914 63.25ZM41.4658 63.6406V63.2402C41.4658 62.8431 41.4268 62.4932 41.3486 62.1904C41.2738 61.8844 41.1615 61.6289 41.0117 61.4238C40.8652 61.2155 40.6846 61.0592 40.4697 60.9551C40.2549 60.8477 40.0124 60.7939 39.7422 60.7939C39.472 60.7939 39.2311 60.8477 39.0195 60.9551C38.8079 61.0592 38.6273 61.2155 38.4775 61.4238C38.3311 61.6289 38.2188 61.8844 38.1406 62.1904C38.0625 62.4932 38.0234 62.8431 38.0234 63.2402V63.6406C38.0234 64.0378 38.0625 64.3893 38.1406 64.6953C38.2188 65.0013 38.3327 65.2601 38.4824 65.4717C38.6354 65.68 38.8177 65.8379 39.0293 65.9453C39.2409 66.0495 39.4818 66.1016 39.752 66.1016C40.0254 66.1016 40.2679 66.0495 40.4795 65.9453C40.6911 65.8379 40.8701 65.68 41.0166 65.4717C41.1631 65.2601 41.2738 65.0013 41.3486 64.6953C41.4268 64.3893 41.4658 64.0378 41.4658 63.6406Z" fill="#4C4C4C"/>
<path d="M33.9902 59.8906V67H32.7744V59.8906H33.9902ZM36.2217 59.8906V60.8672H30.5625V59.8906H36.2217Z" fill="#4C4C4C"/>
<path d="M27.8086 66.0283V67H24.0342V66.0283H27.8086ZM24.3809 59.8906V67H23.1553V59.8906H24.3809ZM27.3154 62.8594V63.8164H24.0342V62.8594H27.3154ZM27.7842 59.8906V60.8672H24.0342V59.8906H27.7842Z" fill="#4C4C4C"/>
<path d="M21.7979 63.3672V66.082C21.6969 66.2155 21.5391 66.362 21.3242 66.5215C21.1126 66.6777 20.8311 66.8128 20.4795 66.9268C20.1279 67.0407 19.6901 67.0977 19.166 67.0977C18.7201 67.0977 18.3115 67.0228 17.9404 66.873C17.5693 66.7201 17.2487 66.4971 16.9785 66.2041C16.7116 65.9111 16.5049 65.5547 16.3584 65.1348C16.2119 64.7116 16.1387 64.2298 16.1387 63.6895V63.1963C16.1387 62.6592 16.2054 62.1807 16.3389 61.7607C16.4756 61.3376 16.6709 60.9795 16.9248 60.6865C17.1787 60.3936 17.4847 60.1722 17.8428 60.0225C18.2041 59.8695 18.6126 59.793 19.0684 59.793C19.651 59.793 20.1328 59.8906 20.5137 60.0859C20.8978 60.278 21.194 60.5449 21.4023 60.8867C21.6107 61.2285 21.7425 61.6191 21.7979 62.0586H20.5967C20.5576 61.8112 20.4811 61.5898 20.3672 61.3945C20.2565 61.1992 20.097 61.0462 19.8887 60.9355C19.6836 60.8216 19.4167 60.7646 19.0879 60.7646C18.8047 60.7646 18.5557 60.8184 18.3408 60.9258C18.126 61.0332 17.9469 61.1911 17.8037 61.3994C17.6637 61.6077 17.5579 61.8617 17.4863 62.1611C17.4147 62.4606 17.3789 62.8024 17.3789 63.1865V63.6895C17.3789 64.0801 17.4196 64.4268 17.501 64.7295C17.5856 65.0322 17.7061 65.2878 17.8623 65.4961C18.0218 65.7044 18.2155 65.8623 18.4434 65.9697C18.6712 66.0739 18.9284 66.126 19.2148 66.126C19.4948 66.126 19.7243 66.1032 19.9033 66.0576C20.0824 66.0088 20.224 65.9518 20.3281 65.8867C20.4355 65.8184 20.5186 65.7533 20.5771 65.6914V64.2803H19.0977V63.3672H21.7979Z" fill="#4C4C4C"/>
<path d="M12.5547 60.8379L10.4307 67H9.14648L11.8223 59.8906H12.6426L12.5547 60.8379ZM14.332 67L12.2031 60.8379L12.1104 59.8906H12.9355L15.6211 67H14.332ZM14.2295 64.3633V65.335H10.3623V64.3633H14.2295Z" fill="#4C4C4C"/>
<path d="M6.8418 64.3486H4.99121V63.377H6.8418C7.16406 63.377 7.42448 63.3249 7.62305 63.2207C7.82161 63.1165 7.96647 62.9733 8.05762 62.791C8.15202 62.6055 8.19922 62.3939 8.19922 62.1562C8.19922 61.9316 8.15202 61.7217 8.05762 61.5264C7.96647 61.3278 7.82161 61.1683 7.62305 61.0479C7.42448 60.9274 7.16406 60.8672 6.8418 60.8672H5.36719V67H4.1416V59.8906H6.8418C7.39193 59.8906 7.85905 59.9883 8.24316 60.1836C8.63053 60.3757 8.92513 60.6426 9.12695 60.9844C9.32878 61.3229 9.42969 61.7103 9.42969 62.1465C9.42969 62.6055 9.32878 62.9993 9.12695 63.3281C8.92513 63.6569 8.63053 63.9092 8.24316 64.085C7.85905 64.2607 7.39193 64.3486 6.8418 64.3486Z" fill="#4C4C4C"/>
<path d="M27.8382 13.7618C27.5973 13.5195 27.3109 13.3272 26.9954 13.196C26.6799 13.0649 26.3417 12.9973 26 12.9973C25.6583 12.9973 25.32 13.0649 25.0046 13.196C24.6891 13.3272 24.4027 13.5195 24.1618 13.7618L13.13 24.7936C12.6564 25.284 12.3943 25.9407 12.4002 26.6224C12.4062 27.3042 12.6796 27.9563 13.1617 28.4383C13.6437 28.9204 14.2958 29.1938 14.9776 29.1998C15.6593 29.2057 16.316 28.9436 16.8064 28.47L23.4 21.8764L23.4 36.4C23.4 37.0896 23.6739 37.7509 24.1615 38.2385C24.6491 38.7261 25.3104 39 26 39C26.6896 39 27.3509 38.7261 27.8385 38.2385C28.3261 37.7509 28.6 37.0896 28.6 36.4L28.6 21.8764L35.1936 28.47C35.684 28.9436 36.3407 29.2057 37.0224 29.1997C37.7042 29.1938 38.3563 28.9204 38.8383 28.4383C39.3204 27.9563 39.5938 27.3042 39.5998 26.6224C39.6057 25.9407 39.3436 25.284 38.87 24.7936L27.8382 13.7618ZM52 26C52 40.3598 40.3598 52 26 52C11.6402 52 -4.69966e-07 40.3598 -1.04973e-06 26C-1.6295e-06 11.6402 11.6402 -2.45821e-06 26 -3.13778e-06C40.3598 -3.81734e-06 52 11.6402 52 26Z" fill="#AAAAAA"/>
</svg>
