<svg width="20" height="21" viewBox="0 0 20 21" fill="none" xmlns="http://www.w3.org/2000/svg">
<g id="icon-loupe">
<path id="Vector" d="M7.8125 11.4375V10.1875H6.5625C6.31386 10.1875 6.0754 10.0887 5.89959 9.91291C5.72377 9.7371 5.625 9.49864 5.625 9.25C5.625 9.00136 5.72377 8.7629 5.89959 8.58709C6.0754 8.41127 6.31386 8.3125 6.5625 8.3125H7.8125V7.0625C7.8125 6.81386 7.91127 6.5754 8.08709 6.39959C8.2629 6.22377 8.50136 6.125 8.75 6.125C8.99864 6.125 9.2371 6.22377 9.41291 6.39959C9.58873 6.5754 9.6875 6.81386 9.6875 7.0625V8.3125H10.9375C11.1861 8.3125 11.4246 8.41127 11.6004 8.58709C11.7762 8.7629 11.875 9.00136 11.875 9.25C11.875 9.49864 11.7762 9.7371 11.6004 9.91291C11.4246 10.0887 11.1861 10.1875 10.9375 10.1875H9.6875V11.4375C9.6875 11.6861 9.58873 11.9246 9.41291 12.1004C9.2371 12.2762 8.99864 12.375 8.75 12.375C8.50136 12.375 8.2629 12.2762 8.08709 12.1004C7.91127 11.9246 7.8125 11.6861 7.8125 11.4375Z" fill="#1A1A1A"/>
<path id="Vector_2" fill-rule="evenodd" clip-rule="evenodd" d="M8.75002 15.5C10.1375 15.5 11.42 15.0475 12.4563 14.2825L15.9 17.725C15.9858 17.8171 16.0893 17.891 16.2043 17.9422C16.3193 17.9935 16.4435 18.021 16.5694 18.0232C16.6952 18.0255 16.8203 18.0023 16.937 17.9552C17.0538 17.908 17.1598 17.8378 17.2488 17.7488C17.3378 17.6598 17.408 17.5537 17.4552 17.437C17.5023 17.3203 17.5255 17.1952 17.5233 17.0694C17.521 16.9435 17.4935 16.8193 17.4422 16.7043C17.391 16.5893 17.3171 16.4858 17.225 16.4L13.7825 12.9563C14.616 11.8245 15.0437 10.4447 14.9965 9.03994C14.9492 7.63514 14.4298 6.28727 13.5222 5.21403C12.6145 4.14079 11.3715 3.40485 9.99406 3.12507C8.61658 2.84529 7.18501 3.038 5.93056 3.67208C4.67611 4.30616 3.67202 5.34459 3.08046 6.61965C2.48891 7.89471 2.34442 9.33194 2.67035 10.6992C2.99627 12.0665 3.77358 13.284 4.87672 14.1551C5.97986 15.0262 7.34442 15.5 8.75002 15.5ZM8.75002 13.625C9.91034 13.625 11.0231 13.1641 11.8436 12.3436C12.6641 11.5231 13.125 10.4103 13.125 9.25001C13.125 8.08969 12.6641 6.97689 11.8436 6.15642C11.0231 5.33594 9.91034 4.87501 8.75002 4.87501C7.5897 4.87501 6.4769 5.33594 5.65643 6.15642C4.83596 6.97689 4.37502 8.08969 4.37502 9.25001C4.37502 10.4103 4.83596 11.5231 5.65643 12.3436C6.4769 13.1641 7.5897 13.625 8.75002 13.625Z" fill="#1A1A1A"/>
</g>
</svg>
