<svg width="16" height="16" viewBox="0 0 16 16" fill="none" xmlns="http://www.w3.org/2000/svg">
<path fill-rule="evenodd" clip-rule="evenodd" d="M2.3873 3.80945C2.15829 3.80945 1.93866 3.90043 1.77672 4.06236C1.61478 4.2243 1.52381 4.44393 1.52381 4.67295V13.6126C1.52381 13.8416 1.61478 14.0613 1.77672 14.2232C1.93866 14.3851 2.15829 14.4761 2.3873 14.4761H11.327C11.556 14.4761 11.7756 14.3851 11.9376 14.2232C12.0995 14.0613 12.1905 13.8416 12.1905 13.6126V8.73644C12.1905 8.31565 12.5316 7.97453 12.9524 7.97453C13.3732 7.97453 13.7143 8.31565 13.7143 8.73644V13.6126C13.7143 14.2458 13.4628 14.853 13.0151 15.3007C12.5674 15.7484 11.9601 15.9999 11.327 15.9999H2.3873C1.75415 15.9999 1.14693 15.7484 0.699224 15.3007C0.251519 14.853 0 14.2458 0 13.6126V4.67295C0 4.03979 0.251518 3.43257 0.699224 2.98487C1.14693 2.53716 1.75415 2.28564 2.3873 2.28564H7.26349C7.68428 2.28564 8.0254 2.62676 8.0254 3.04755C8.0254 3.46834 7.68428 3.80945 7.26349 3.80945H2.3873Z" fill="#4C4C4C"/>
<path fill-rule="evenodd" clip-rule="evenodd" d="M9.9043 0.761905C9.9043 0.341116 10.2454 0 10.6662 0H15.2376C15.6584 0 15.9995 0.341116 15.9995 0.761905V5.33333C15.9995 5.75412 15.6584 6.09524 15.2376 6.09524C14.8168 6.09524 14.4757 5.75412 14.4757 5.33333V1.52381H10.6662C10.2454 1.52381 9.9043 1.18269 9.9043 0.761905Z" fill="#4C4C4C"/>
<path fill-rule="evenodd" clip-rule="evenodd" d="M15.7765 0.223157C16.0741 0.520699 16.0741 1.00311 15.7765 1.30065L6.63366 10.4435C6.33612 10.7411 5.85371 10.7411 5.55616 10.4435C5.25862 10.146 5.25862 9.66356 5.55616 9.36601L14.699 0.223157C14.9966 -0.0743856 15.479 -0.0743856 15.7765 0.223157Z" fill="#4C4C4C"/>
</svg>
