<svg width="12" height="10" viewBox="0 0 12 10" fill="none" xmlns="http://www.w3.org/2000/svg">
<path d="M12 1.79613C12 2.00258 11.9277 2.17806 11.7832 2.32258L6.17806 7.92774L5.12516 8.98065C4.98065 9.12516 4.80516 9.19742 4.59871 9.19742C4.39226 9.19742 4.21677 9.12516 4.07226 8.98065L3.01935 7.92774L0.216774 5.12516C0.0722581 4.98065 0 4.80516 0 4.59871C0 4.39226 0.0722581 4.21677 0.216774 4.07226L1.26968 3.01935C1.41419 2.87484 1.58968 2.80258 1.79613 2.80258C2.00258 2.80258 2.17806 2.87484 2.32258 3.01935L4.59871 5.30323L9.67742 0.216774C9.82194 0.0722581 9.99742 0 10.2039 0C10.4103 0 10.5858 0.0722581 10.7303 0.216774L11.7832 1.26968C11.9277 1.41419 12 1.58968 12 1.79613Z" fill="black"/>
</svg>
