<svg width="42" height="51" viewBox="0 0 42 51" fill="none" xmlns="http://www.w3.org/2000/svg">
<path d="M39.1055 47.6138H37.4399V46.7393H39.1055C39.3955 46.7393 39.6299 46.6924 39.8086 46.5986C39.9873 46.5049 40.1177 46.376 40.1997 46.2119C40.2847 46.0449 40.3271 45.8545 40.3271 45.6406C40.3271 45.4385 40.2847 45.2495 40.1997 45.0737C40.1177 44.895 39.9873 44.7515 39.8086 44.6431C39.6299 44.5347 39.3955 44.4805 39.1055 44.4805H37.7783V50H36.6753V43.6016H39.1055C39.6006 43.6016 40.021 43.6895 40.3667 43.8652C40.7153 44.0381 40.9805 44.2783 41.1621 44.5859C41.3438 44.8906 41.4346 45.2393 41.4346 45.6318C41.4346 46.0449 41.3438 46.3994 41.1621 46.6953C40.9805 46.9912 40.7153 47.2183 40.3667 47.3765C40.021 47.5347 39.6006 47.6138 39.1055 47.6138Z" fill="#4C4C4C"/>
<path d="M35.5723 46.625V46.9766C35.5723 47.46 35.5093 47.8936 35.3833 48.2773C35.2573 48.6611 35.0771 48.9878 34.8428 49.2573C34.6113 49.5269 34.333 49.7334 34.0078 49.877C33.6826 50.0176 33.3223 50.0879 32.9268 50.0879C32.5342 50.0879 32.1753 50.0176 31.8501 49.877C31.5278 49.7334 31.248 49.5269 31.0107 49.2573C30.7734 48.9878 30.5889 48.6611 30.457 48.2773C30.3281 47.8936 30.2637 47.46 30.2637 46.9766V46.625C30.2637 46.1416 30.3281 45.7095 30.457 45.3286C30.5859 44.9448 30.7676 44.6182 31.002 44.3486C31.2393 44.0762 31.519 43.8696 31.8413 43.729C32.1665 43.5854 32.5254 43.5137 32.918 43.5137C33.3135 43.5137 33.6738 43.5854 33.999 43.729C34.3242 43.8696 34.604 44.0762 34.8384 44.3486C35.0728 44.6182 35.2529 44.9448 35.3789 45.3286C35.5078 45.7095 35.5723 46.1416 35.5723 46.625ZM34.4692 46.9766V46.6162C34.4692 46.2588 34.4341 45.9438 34.3638 45.6714C34.2964 45.396 34.1953 45.166 34.0605 44.9814C33.9287 44.7939 33.7661 44.6533 33.5728 44.5596C33.3794 44.4629 33.1611 44.4146 32.918 44.4146C32.6748 44.4146 32.458 44.4629 32.2676 44.5596C32.0771 44.6533 31.9146 44.7939 31.7798 44.9814C31.6479 45.166 31.5469 45.396 31.4766 45.6714C31.4062 45.9438 31.3711 46.2588 31.3711 46.6162V46.9766C31.3711 47.334 31.4062 47.6504 31.4766 47.9258C31.5469 48.2012 31.6494 48.4341 31.7842 48.6245C31.9219 48.812 32.0859 48.9541 32.2764 49.0508C32.4668 49.1445 32.6836 49.1914 32.9268 49.1914C33.1729 49.1914 33.3911 49.1445 33.5815 49.0508C33.772 48.9541 33.9331 48.812 34.0649 48.6245C34.1968 48.4341 34.2964 48.2012 34.3638 47.9258C34.4341 47.6504 34.4692 47.334 34.4692 46.9766Z" fill="#4C4C4C"/>
<path d="M27.7412 43.6016V50H26.647V43.6016H27.7412ZM29.7495 43.6016V44.4805H24.6562V43.6016H29.7495Z" fill="#4C4C4C"/>
<path d="M22.1777 49.1255V50H18.7808V49.1255H22.1777ZM19.0928 43.6016V50H17.9897V43.6016H19.0928ZM21.7339 46.2734V47.1348H18.7808V46.2734H21.7339ZM22.1558 43.6016V44.4805H18.7808V43.6016H22.1558Z" fill="#4C4C4C"/>
<path d="M16.7681 46.7305V49.1738C16.6772 49.2939 16.5352 49.4258 16.3418 49.5693C16.1514 49.71 15.8979 49.8315 15.5815 49.9341C15.2651 50.0366 14.8711 50.0879 14.3994 50.0879C13.998 50.0879 13.6304 50.0205 13.2964 49.8857C12.9624 49.748 12.6738 49.5474 12.4307 49.2837C12.1904 49.02 12.0044 48.6992 11.8726 48.3213C11.7407 47.9404 11.6748 47.5068 11.6748 47.0205V46.5767C11.6748 46.0933 11.7349 45.6626 11.855 45.2847C11.978 44.9038 12.1538 44.5815 12.3823 44.3179C12.6108 44.0542 12.8862 43.855 13.2085 43.7202C13.5337 43.5825 13.9014 43.5137 14.3115 43.5137C14.8359 43.5137 15.2695 43.6016 15.6123 43.7773C15.958 43.9502 16.2246 44.1904 16.4121 44.498C16.5996 44.8057 16.7183 45.1572 16.7681 45.5527H15.687C15.6519 45.3301 15.583 45.1309 15.4805 44.9551C15.3809 44.7793 15.2373 44.6416 15.0498 44.542C14.8652 44.4395 14.625 44.3882 14.3291 44.3882C14.0742 44.3882 13.8501 44.4365 13.6567 44.5332C13.4634 44.6299 13.3022 44.772 13.1733 44.9595C13.0474 45.147 12.9521 45.3755 12.8877 45.645C12.8232 45.9146 12.791 46.2222 12.791 46.5679V47.0205C12.791 47.3721 12.8276 47.6841 12.9009 47.9565C12.9771 48.229 13.0854 48.459 13.2261 48.6465C13.3696 48.834 13.5439 48.9761 13.749 49.0728C13.9541 49.1665 14.1855 49.2134 14.4434 49.2134C14.6953 49.2134 14.9019 49.1929 15.063 49.1519C15.2241 49.1079 15.3516 49.0566 15.4453 48.998C15.542 48.9365 15.6167 48.8779 15.6694 48.8223V47.5522H14.3379V46.7305H16.7681Z" fill="#4C4C4C"/>
<path d="M8.44922 44.4541L6.5376 50H5.38184L7.79004 43.6016H8.52832L8.44922 44.4541ZM10.0488 50L8.13281 44.4541L8.04932 43.6016H8.79199L11.209 50H10.0488ZM9.95654 47.627V48.5015H6.47607V47.627H9.95654Z" fill="#4C4C4C"/>
<path d="M3.30762 47.6138H1.64209V46.7393H3.30762C3.59766 46.7393 3.83203 46.6924 4.01074 46.5986C4.18945 46.5049 4.31982 46.376 4.40186 46.2119C4.48682 46.0449 4.5293 45.8545 4.5293 45.6406C4.5293 45.4385 4.48682 45.2495 4.40186 45.0737C4.31982 44.895 4.18945 44.7515 4.01074 44.6431C3.83203 44.5347 3.59766 44.4805 3.30762 44.4805H1.98047V50H0.877441V43.6016H3.30762C3.80273 43.6016 4.22314 43.6895 4.56885 43.8652C4.91748 44.0381 5.18262 44.2783 5.36426 44.5859C5.5459 44.8906 5.63672 45.2393 5.63672 45.6318C5.63672 46.0449 5.5459 46.3994 5.36426 46.6953C5.18262 46.9912 4.91748 47.2183 4.56885 47.3765C4.22314 47.5347 3.80273 47.6138 3.30762 47.6138Z" fill="#4C4C4C"/>
<path d="M22.2726 9.5274C22.1058 9.35967 21.9075 9.22656 21.6891 9.13573C21.4707 9.0449 21.2365 8.99814 21 8.99814C20.7635 8.99814 20.5293 9.0449 20.3109 9.13573C20.0925 9.22656 19.8942 9.35967 19.7274 9.5274L12.09 17.1648C11.7621 17.5043 11.5807 17.959 11.5848 18.4309C11.5889 18.9029 11.7782 19.3543 12.1119 19.6881C12.4457 20.0218 12.8971 20.2111 13.3691 20.2152C13.841 20.2193 14.2957 20.0379 14.6352 19.71L19.2 15.1452L19.2 25.2C19.2 25.6774 19.3896 26.1352 19.7272 26.4728C20.0648 26.8104 20.5226 27 21 27C21.4774 27 21.9352 26.8104 22.2728 26.4728C22.6104 26.1352 22.8 25.6774 22.8 25.2L22.8 15.1452L27.3648 19.71C27.7043 20.0379 28.159 20.2193 28.6309 20.2152C29.1029 20.2111 29.5543 20.0218 29.8881 19.6881C30.2218 19.3543 30.4111 18.9029 30.4152 18.4309C30.4193 17.959 30.2379 17.5043 29.91 17.1648L22.2726 9.5274ZM39 18C39 27.9414 30.9414 36 21 36C11.0586 36 3 27.9414 3 18C3 8.0586 11.0586 -7.38995e-07 21 -1.20946e-06C30.9414 -1.67993e-06 39 8.0586 39 18Z" fill="#AAAAAA"/>
</svg>
