<svg width="24" height="24" viewBox="0 0 24 24" fill="none" xmlns="http://www.w3.org/2000/svg">
<g id="ico-house">
<path id="Vector" d="M20.625 10.8814V19.1874C20.625 19.5687 20.4735 19.9343 20.204 20.2039C19.9344 20.4735 19.5687 20.6249 19.1875 20.6249H15.5938C15.2125 20.6249 14.8469 20.4735 14.5773 20.2039C14.3077 19.9343 14.1562 19.5687 14.1562 19.1874V15.5937C14.1562 15.4031 14.0805 15.2202 13.9457 15.0855C13.8109 14.9507 13.6281 14.8749 13.4375 14.8749H10.5625C10.3719 14.8749 10.1891 14.9507 10.0543 15.0855C9.91948 15.2202 9.84375 15.4031 9.84375 15.5937V19.1874C9.84375 19.5687 9.6923 19.9343 9.42272 20.2039C9.15313 20.4735 8.7875 20.6249 8.40625 20.6249H4.8125C4.43125 20.6249 4.06562 20.4735 3.79603 20.2039C3.52645 19.9343 3.375 19.5687 3.375 19.1874V10.8814C3.37497 10.6824 3.41624 10.4856 3.49619 10.3035C3.57615 10.1213 3.69304 9.95769 3.83949 9.82302L11.027 3.04162L11.0369 3.03173C11.3015 2.79107 11.6463 2.65771 12.004 2.65771C12.3617 2.65771 12.7066 2.79107 12.9712 3.03173C12.9743 3.03525 12.9776 3.03855 12.9811 3.04162L20.1686 9.82302C20.3136 9.9584 20.429 10.1223 20.5075 10.3045C20.5861 10.4866 20.6261 10.683 20.625 10.8814Z" fill="#1A1A1A"/>
</g>
</svg>
