<svg width="18" height="17" viewBox="0 0 18 17" fill="none" xmlns="http://www.w3.org/2000/svg">
<g id="ico-calendar">
<path id="Vector" d="M13.7594 2.83341H12.3428V2.12508C12.3428 1.93722 12.2681 1.75705 12.1353 1.62421C12.0025 1.49138 11.8223 1.41675 11.6344 1.41675C11.4466 1.41675 11.2664 1.49138 11.1336 1.62421C11.0007 1.75705 10.9261 1.93722 10.9261 2.12508V2.83341H6.67611V2.12508C6.67611 1.93722 6.60148 1.75705 6.46864 1.62421C6.3358 1.49138 6.15563 1.41675 5.96777 1.41675C5.77991 1.41675 5.59974 1.49138 5.46691 1.62421C5.33407 1.75705 5.25944 1.93722 5.25944 2.12508V2.83341H3.84277C3.27919 2.83341 2.73869 3.0573 2.34017 3.45581C1.94166 3.85433 1.71777 4.39483 1.71777 4.95841V13.4584C1.71777 14.022 1.94166 14.5625 2.34017 14.961C2.73869 15.3595 3.27919 15.5834 3.84277 15.5834H13.7594C14.323 15.5834 14.8635 15.3595 15.262 14.961C15.6606 14.5625 15.8844 14.022 15.8844 13.4584V4.95841C15.8844 4.39483 15.6606 3.85433 15.262 3.45581C14.8635 3.0573 14.323 2.83341 13.7594 2.83341ZM14.4678 13.4584C14.4678 13.6463 14.3931 13.8264 14.2603 13.9593C14.1275 14.0921 13.9473 14.1667 13.7594 14.1667H3.84277C3.65491 14.1667 3.47474 14.0921 3.34191 13.9593C3.20907 13.8264 3.13444 13.6463 3.13444 13.4584V8.50008H14.4678V13.4584ZM14.4678 7.08341H3.13444V4.95841C3.13444 4.77055 3.20907 4.59039 3.34191 4.45755C3.47474 4.32471 3.65491 4.25008 3.84277 4.25008H5.25944V4.95841C5.25944 5.14628 5.33407 5.32644 5.46691 5.45928C5.59974 5.59212 5.77991 5.66675 5.96777 5.66675C6.15563 5.66675 6.3358 5.59212 6.46864 5.45928C6.60148 5.32644 6.67611 5.14628 6.67611 4.95841V4.25008H10.9261V4.95841C10.9261 5.14628 11.0007 5.32644 11.1336 5.45928C11.2664 5.59212 11.4466 5.66675 11.6344 5.66675C11.8223 5.66675 12.0025 5.59212 12.1353 5.45928C12.2681 5.32644 12.3428 5.14628 12.3428 4.95841V4.25008H13.7594C13.9473 4.25008 14.1275 4.32471 14.2603 4.45755C14.3931 4.59039 14.4678 4.77055 14.4678 4.95841V7.08341Z" fill="black"/>
</g>
</svg>
