<svg width="13" height="13" viewBox="0 0 13 13" fill="none" xmlns="http://www.w3.org/2000/svg">
<g id="ico-write" clip-path="url(#clip0_499_10110)">
<path id="Vector" d="M11.8026 0.801568L12.1222 1.12115C12.5626 1.56207 12.4959 2.34369 11.9722 2.86694L5.3817 9.4574L3.24645 10.2385C2.97833 10.3371 2.71724 10.2092 2.66416 9.95411C2.64622 9.86156 2.65467 9.76584 2.68853 9.67786L3.48478 7.52419L10.0568 0.95161C10.5806 0.42836 11.3622 0.360652 11.8026 0.801568ZM5.09408 1.45699C5.16521 1.45699 5.23564 1.471 5.30136 1.49822C5.36708 1.52544 5.42679 1.56534 5.47709 1.61564C5.52739 1.66593 5.56729 1.72565 5.59451 1.79136C5.62173 1.85708 5.63574 1.92752 5.63574 1.99865C5.63574 2.06978 5.62173 2.14022 5.59451 2.20594C5.56729 2.27166 5.52739 2.33137 5.47709 2.38167C5.42679 2.43197 5.36708 2.47187 5.30136 2.49909C5.23564 2.52631 5.16521 2.54032 5.09408 2.54032H2.92741C2.64009 2.54032 2.36454 2.65446 2.16138 2.85762C1.95821 3.06078 1.84408 3.33633 1.84408 3.62365V10.1237C1.84408 10.411 1.95821 10.6865 2.16138 10.8897C2.36454 11.0928 2.64009 11.207 2.92741 11.207H9.42741C9.71473 11.207 9.99028 11.0928 10.1934 10.8897C10.3966 10.6865 10.5107 10.411 10.5107 10.1237V7.95699C10.5107 7.81333 10.5678 7.67555 10.6694 7.57397C10.771 7.47239 10.9087 7.41532 11.0524 7.41532C11.1961 7.41532 11.3338 7.47239 11.4354 7.57397C11.537 7.67555 11.5941 7.81333 11.5941 7.95699V10.1237C11.5941 10.6983 11.3658 11.2494 10.9595 11.6557C10.5531 12.062 10.002 12.2903 9.42741 12.2903H2.92741C2.35277 12.2903 1.80167 12.062 1.39534 11.6557C0.989015 11.2494 0.760742 10.6983 0.760742 10.1237V3.62365C0.760742 3.04902 0.989015 2.49792 1.39534 2.09159C1.80167 1.68526 2.35277 1.45699 2.92741 1.45699H5.09408Z" fill="#1A1A1A"/>
</g>
<defs>
<clipPath id="clip0_499_10110">
<rect width="13" height="13" fill="white"/>
</clipPath>
</defs>
</svg>
