<svg width="184" height="13" viewBox="0 0 184 13" fill="none" xmlns="http://www.w3.org/2000/svg">
<g id="logo-nagano-hp">
<path id="Vector" d="M7.19 12.81H0V10.42H4.79V8.82003L0 5.23003V0.0300293H7.19V2.43003H2.4V4.03003L7.19 7.62003V12.81Z" fill="#E62310"/>
<path id="Vector_2" d="M26.36 12.81H19.17V0.0300293H26.36V2.43003H21.56V10.42H26.36V12.81Z" fill="#006EBB"/>
<path id="Vector_3" d="M16.77 0.0300293H9.58002V12.81H16.77V7.62003L15.57 6.42003L16.77 5.22003V0.0300293ZM11.98 2.42003H14.38V4.22003L13.39 5.21003H11.99V2.41003L11.98 2.42003ZM14.38 10.41H11.98V7.61003H13.39L14.38 8.60003V10.4V10.41Z" fill="#009544"/>
<path id="Vector_4" d="M82.86 12.78H85.29L87.72 0.840027H85.29L82.86 12.78Z" fill="#1A1A1A"/>
<path id="Vector_5" d="M92.52 0.840027H90.08C90.08 0.840027 93.1 7.13003 93.1 12.77H95.54C95.54 7.12003 92.52 0.840027 92.52 0.840027Z" fill="#1A1A1A"/>
<path id="Vector_6" d="M115.42 1.25H109.73V3.36H115.42V1.25Z" fill="#1A1A1A"/>
<path id="Vector_7" d="M135.17 1.24999H132.82C133.55 11.34 125.12 10.41 123.81 10.45V12.77C125.44 12.71 135.85 13.44 135.17 1.23999V1.24999Z" fill="#1A1A1A"/>
<path id="Vector_8" d="M129.07 1.25H123.38V3.36H129.07V1.25Z" fill="#1A1A1A"/>
<path id="Vector_9" d="M115.42 4.32001H109.73V6.43001H115.42V4.32001Z" fill="#1A1A1A"/>
<path id="Vector_10" d="M120.24 0.390015H119.05V1.92001H120.24V0.390015Z" fill="#1A1A1A"/>
<path id="Vector_11" d="M122.05 0.390015H120.85V1.92001H122.05V0.390015Z" fill="#1A1A1A"/>
<path id="Vector_12" d="M110.17 10.46V12.78C111.74 12.73 121.47 13.4 121.56 2.47998H119.22C119.18 11.26 111.42 10.41 110.17 10.46Z" fill="#1A1A1A"/>
<path id="Vector_13" d="M170.4 5.79999H162.05V8.11999H170.4V5.79999Z" fill="#1A1A1A"/>
<path id="Vector_14" d="M147.18 0.390015H145.98V1.92001H147.18V0.390015Z" fill="#1A1A1A"/>
<path id="Vector_15" d="M148.98 0.390015H147.78V1.92001H148.98V0.390015Z" fill="#1A1A1A"/>
<path id="Vector_16" d="M145.49 2.48V1.25H139.24C139.24 1.25 139.01 3.82 136.61 4.9V7.48C136.61 7.48 140.01 6.38 140.88 3.58H146.07C145.87 10.94 139.59 10.46 137.38 10.46V12.78C139.86 12.78 148.74 13.12 148.38 2.48H145.49Z" fill="#1A1A1A"/>
<path id="Vector_17" d="M183.25 1.25H174.18C174.18 1.25 173.95 3.82 171.56 4.9V7.48C171.56 7.48 174.96 6.38 175.83 3.58H181.02C180.82 10.94 174.55 10.46 172.33 10.46V12.78C174.9 12.78 184.35 13.15 183.25 1.25Z" fill="#1A1A1A"/>
<path id="Vector_18" d="M159.94 3.19C160.82 3.19 161.54 2.48 161.54 1.59C161.54 0.7 160.82 0 159.94 0C159.06 0 158.34 0.71 158.34 1.59C158.34 2.47 159.05 3.19 159.94 3.19ZM159.94 0.96C160.29 0.96 160.58 1.24 160.58 1.6C160.58 1.96 160.3 2.24 159.94 2.24C159.58 2.24 159.3 1.95 159.3 1.6C159.3 1.25 159.58 0.96 159.94 0.96Z" fill="#1A1A1A"/>
<path id="Vector_19" d="M148.79 12.78H151.23L153.66 0.840027H151.22L148.79 12.78Z" fill="#1A1A1A"/>
<path id="Vector_20" d="M157.78 1.59003C157.78 1.33003 157.83 1.07003 157.92 0.840027H156.02C156.02 0.840027 159.04 7.13003 159.04 12.77H161.48C161.48 9.53003 160.48 6.08003 159.63 3.72003C158.59 3.57003 157.78 2.67003 157.78 1.59003Z" fill="#1A1A1A"/>
<path id="Vector_21" d="M108.14 2.05003H103.29V0.530029H100.94V2.06003H96.1V6.95003H98.45V4.39003H105.62C105.57 10.39 103.06 10.52 98.24 10.44V12.83C105.46 13.05 108.27 11.12 108.15 2.07003L108.14 2.05003Z" fill="#1A1A1A"/>
<path id="Vector_22" d="M60.8 1.81001V0.140015H62.86V1.81001H67.72V9.69001H62.86V12.83H60.8V9.69001H56.01V1.81001H60.8ZM60.8 3.77001H58.06V7.74001H60.8V3.77001ZM65.67 3.77001H62.86V7.74001H65.67V3.77001Z" fill="#1A1A1A"/>
<path id="Vector_23" d="M41.36 6.38H32.38V5.85H39.96V4.55H32.38V4H39.96V2.73H32.38V2.19H40.4V0.5H30.32V6.38H28.79V8.08H30.32V10.85C29.41 10.88 28.85 10.88 28.85 10.88V12.79C28.85 12.79 30.51 12.73 32.35 12.55C34.1 12.38 35.4 12.02 35.4 12.02V10.33C35.4 10.33 34.45 10.58 32.41 10.73H32.39V8.08H33.66C36.57 12.85 41.21 12.87 41.21 12.87V10.61C41.21 10.61 40.04 10.67 38.68 10.23L40.76 9.01L39.33 8.07H41.38V6.37L41.36 6.38ZM37 9.43C36.5 9.09 36.03 8.64 35.63 8.08H38.68L37 9.43Z" fill="#1A1A1A"/>
<path id="Vector_24" d="M46.52 9.43001H48.71V7.69001H46.52V6.79001H48.84V0.570007H42.45V6.78001H44.7V7.68001H42.63V9.42001H44.7V10.52C44.27 10.53 43.09 10.65 42.32 10.67V12.69C44.01 12.58 47.54 12.25 49.04 11.96V10.14C49.04 10.14 46.7 10.37 46.52 10.38V9.42001V9.43001ZM46.43 2.17001H47.3V3.01001H46.43V2.17001ZM44.86 5.25001H44.03V4.36001H44.86V5.25001ZM44.86 3.01001H44.03V2.17001H44.86V3.01001ZM46.43 4.36001H47.3V5.25001H46.43V4.36001Z" fill="#1A1A1A"/>
<path id="Vector_25" d="M53.62 4.92001L53.81 4.63001C53.65 4.46001 53.54 4.34001 53.13 4.00001C53.76 3.40001 54.59 2.55001 54.59 1.67001V0.570007H49.27V2.30001H52.44C52.25 2.55001 52.17 2.66001 51.8 3.05001C51.21 2.67001 50.97 2.54001 50.67 2.41001L50.14 4.00001C50.69 4.32001 51.22 4.66001 51.6 4.92001H49.05V6.74001H50.81V10.18C50.81 10.68 50.7 10.77 50.27 10.77H49.57V12.81H51.19C52.29 12.81 52.68 12.44 52.68 10.96V6.74001H53.44C53.44 7.42001 53.06 8.71001 52.8 9.30001H54.34C54.61 8.59001 54.9 7.47001 54.9 5.83001V4.92001H53.63H53.62Z" fill="#1A1A1A"/>
<path id="Vector_26" d="M81.59 6.06997H80.49V1.33997H76.23V0.219971H74.19V1.33997H70.03V6.06997H68.88V8.00997H73.45C71.86 10.42 69.05 10.44 69.05 10.44V12.86C69.05 12.86 73.01 12.57 75.25 8.79997C77.49 12.58 81.45 12.86 81.45 12.86V10.44C81.45 10.44 78.64 10.42 77.05 8.00997H81.58V6.06997H81.59ZM71.99 3.21997H74.2V6.06997H71.99V3.21997ZM78.52 6.06997H76.23V3.21997H78.52V6.06997Z" fill="#1A1A1A"/>
</g>
</svg>
