<svg width="162" height="16" viewBox="0 0 162 16" fill="none" xmlns="http://www.w3.org/2000/svg">
<g clip-path="url(#clip0_284_3848)">
<path d="M8.96202 15.9817H0V12.9931H5.97468V10.9946L0 6.5178V0.0424805H8.96202V3.03109H2.98734V5.0235L8.96202 9.50034V15.9817Z" fill="#E62310"/>
<path d="M32.8607 15.9817H23.8987V0.0424805H32.8607V3.03109H26.8921V12.9931H32.8607V15.9817Z" fill="#006EBB"/>
<path d="M20.9173 0.0424805H11.9553V15.9817H20.9173V9.50641L19.4237 8.01211L20.9173 6.5178V0.0424805ZM14.9427 3.03109H17.93V5.27862L16.6913 6.5178H14.9427V3.03109ZM17.93 12.9931H14.9427V9.50641H16.6974L17.93 10.7456V12.9931Z" fill="#009544"/>
<path d="M36.4856 15.9393H39.5215L42.5514 1.0509H39.5154L36.4856 15.9393Z" fill="#1A1A1A"/>
<path d="M48.5322 1.0509H45.4902C45.4902 1.0509 49.2608 8.89297 49.2608 15.9332H52.2967C52.2967 8.89297 48.5322 1.0509 48.5322 1.0509Z" fill="#1A1A1A"/>
<path d="M77.0941 1.56714H69.9961V4.20343H77.0941V1.56714Z" fill="#1A1A1A"/>
<path d="M101.727 1.56714H98.7946C99.7054 14.1472 89.1829 12.9931 87.5618 13.0478V15.9453C89.5958 15.8724 102.583 16.7835 101.727 1.56714Z" fill="#1A1A1A"/>
<path d="M94.1072 1.56714H87.0093V4.20343H94.1072V1.56714Z" fill="#1A1A1A"/>
<path d="M77.0941 5.38806H69.9961V8.02436H77.0941V5.38806Z" fill="#1A1A1A"/>
<path d="M83.105 0.479858H81.6174V2.3933H83.105V0.479858Z" fill="#1A1A1A"/>
<path d="M85.3516 0.479858H83.8579V2.3933H85.3516V0.479858Z" fill="#1A1A1A"/>
<path d="M70.5486 13.0478V15.9453C72.5159 15.8785 84.6413 16.7167 84.7445 3.0979H81.83C81.7754 14.0501 72.103 12.9931 70.5486 13.0478Z" fill="#1A1A1A"/>
<path d="M145.639 7.24072H135.232V10.1382H145.639V7.24072Z" fill="#1A1A1A"/>
<path d="M116.688 0.479858H115.201V2.3933H116.688V0.479858Z" fill="#1A1A1A"/>
<path d="M118.935 0.479858H117.441V2.3933H118.935V0.479858Z" fill="#1A1A1A"/>
<path d="M114.581 3.09789V1.56714H106.785C106.785 1.56714 106.494 4.76835 103.512 6.11687V9.33024C103.512 9.33024 107.751 7.95742 108.837 4.46463H115.31C115.067 13.6491 107.234 13.0539 104.478 13.0539V15.9513C107.568 15.9513 118.643 16.3705 118.194 3.10397H114.587L114.581 3.09789Z" fill="#1A1A1A"/>
<path d="M161.669 1.56714H150.357C150.357 1.56714 150.065 4.76835 147.084 6.11687V9.33024C147.084 9.33024 151.322 7.95742 152.409 4.46463H158.875C158.633 13.6491 150.806 13.0539 148.049 13.0539V15.9513C151.249 15.9513 163.035 16.4069 161.669 1.57321" fill="#1A1A1A"/>
<path d="M132.597 3.97874C133.696 3.97874 134.588 3.09188 134.588 1.98633C134.588 0.88079 133.696 0 132.597 0C131.498 0 130.611 0.892939 130.611 1.98633C130.611 3.07973 131.498 3.97874 132.597 3.97874ZM132.597 1.19666C133.04 1.19666 133.392 1.55505 133.392 1.99241C133.392 2.42976 133.034 2.78816 132.597 2.78816C132.159 2.78816 131.801 2.43584 131.801 1.99241C131.801 1.54897 132.159 1.19666 132.597 1.19666Z" fill="#1A1A1A"/>
<path d="M118.704 15.9393H121.74L124.77 1.0509H121.728L118.704 15.9393Z" fill="#1A1A1A"/>
<path d="M129.907 1.98636C129.907 1.65834 129.967 1.34248 130.077 1.0509H127.703C127.703 1.0509 131.473 8.89297 131.473 15.9332H134.509C134.509 11.8877 133.271 7.58697 132.208 4.64696C130.909 4.45865 129.901 3.34096 129.901 1.98636" fill="#1A1A1A"/>
<path d="M68.0166 2.5573H61.963V0.656006H59.0303V2.5573H52.9949V8.64993H55.9215V5.44872H64.8653C64.7985 12.9385 61.6715 13.0903 55.6604 12.9992V15.9757C64.6589 16.249 68.1744 13.8496 68.0166 2.5573Z" fill="#1A1A1A"/>
</g>
<defs>
<clipPath id="clip0_284_3848">
<rect width="161.778" height="16" fill="white"/>
</clipPath>
</defs>
</svg>
