<svg width="158" height="13" viewBox="0 0 158 13" fill="none" xmlns="http://www.w3.org/2000/svg">
<g id="logo-ueda-hp">
<path id="Vector" d="M7.59 12.85H0.380005V10.45H5.19V8.85003L0.380005 5.24003V0.0300293H7.59V2.44003H2.78999V4.04003L7.59 7.64003V12.85Z" fill="#E62310"/>
<path id="Vector_2" d="M26.83 12.85H19.61V0.0300293H26.83V2.44003H22.02V10.45H26.83V12.85Z" fill="#006EBB"/>
<path id="Vector_3" d="M17.21 0.0300293H10V12.85H17.21V7.64003L16.01 6.44003L17.21 5.24003V0.0300293ZM12.4 2.43003H14.81V4.24003L13.81 5.23003H12.4V2.43003ZM14.81 10.44H12.4V7.64003H13.81L14.8 8.63003V10.44H14.81Z" fill="#009544"/>
<path id="Vector_4" d="M56.72 12.82H59.17L61.6 0.849976H59.16L56.72 12.82Z" fill="#1A1A1A"/>
<path id="Vector_5" d="M66.41 0.849976H63.96C63.96 0.849976 66.99 7.15998 66.99 12.82H69.44C69.44 7.15998 66.41 0.849976 66.41 0.849976Z" fill="#1A1A1A"/>
<path id="Vector_6" d="M89.39 1.26001H83.68V3.38001H89.39V1.26001Z" fill="#1A1A1A"/>
<path id="Vector_7" d="M109.21 1.26001H106.85C107.58 11.38 99.12 10.45 97.82 10.49V12.82C99.46 12.76 109.9 13.49 109.21 1.26001Z" fill="#1A1A1A"/>
<path id="Vector_8" d="M103.08 1.26001H97.37V3.38001H103.08V1.26001Z" fill="#1A1A1A"/>
<path id="Vector_9" d="M89.39 4.33002H83.68V6.45002H89.39V4.33002Z" fill="#1A1A1A"/>
<path id="Vector_10" d="M94.23 0.390015H93.03V1.93001H94.23V0.390015Z" fill="#1A1A1A"/>
<path id="Vector_11" d="M96.04 0.390015H94.84V1.93001H96.04V0.390015Z" fill="#1A1A1A"/>
<path id="Vector_12" d="M84.13 10.49V12.82C85.71 12.77 95.47 13.44 95.55 2.48999H93.2C93.16 11.3 85.38 10.45 84.12 10.49H84.13Z" fill="#1A1A1A"/>
<path id="Vector_13" d="M144.54 5.82001H136.17V8.15001H144.54V5.82001Z" fill="#1A1A1A"/>
<path id="Vector_14" d="M121.25 0.390015H120.05V1.93001H121.25V0.390015Z" fill="#1A1A1A"/>
<path id="Vector_15" d="M123.05 0.390015H121.85V1.93001H123.05V0.390015Z" fill="#1A1A1A"/>
<path id="Vector_16" d="M119.55 2.49001V1.26001H113.28C113.28 1.26001 113.05 3.83001 110.64 4.92001V7.50001C110.64 7.50001 114.05 6.39001 114.92 3.59001H120.13C119.93 10.98 113.63 10.5 111.42 10.5V12.83C113.9 12.83 122.81 13.17 122.45 2.50001H119.55V2.49001Z" fill="#1A1A1A"/>
<path id="Vector_17" d="M157.44 1.26001H148.34C148.34 1.26001 148.11 3.83001 145.71 4.92001V7.50001C145.71 7.50001 149.12 6.39001 149.99 3.59001H155.2C155 10.98 148.7 10.5 146.49 10.5V12.83C149.07 12.83 158.54 13.2 157.45 1.27001L157.44 1.26001Z" fill="#1A1A1A"/>
<path id="Vector_18" d="M134.05 3.2C134.93 3.2 135.65 2.48 135.65 1.6C135.65 0.72 134.94 0 134.05 0C133.16 0 132.45 0.72 132.45 1.6C132.45 2.48 133.17 3.2 134.05 3.2ZM134.05 0.96C134.4 0.96 134.69 1.25 134.69 1.6C134.69 1.95 134.4 2.24 134.05 2.24C133.7 2.24 133.41 1.95 133.41 1.6C133.41 1.25 133.7 0.96 134.05 0.96Z" fill="#1A1A1A"/>
<path id="Vector_19" d="M122.87 12.82H125.32L127.75 0.849976H125.31L122.87 12.82Z" fill="#1A1A1A"/>
<path id="Vector_20" d="M131.89 1.59998C131.89 1.32998 131.94 1.07998 132.03 0.849976H130.12C130.12 0.849976 133.15 7.15998 133.15 12.82H135.6C135.6 9.56997 134.6 6.09998 133.75 3.73998C132.7 3.58998 131.89 2.68998 131.89 1.59998Z" fill="#1A1A1A"/>
<path id="Vector_21" d="M82.09 2.06003H77.22V0.530029H74.86V2.06003H70V6.96003H72.36V4.39003H79.55C79.5 10.41 76.99 10.53 72.15 10.46V12.85C79.39 13.07 82.21 11.14 82.09 2.06003Z" fill="#1A1A1A"/>
<path id="Vector_22" d="M36.4 0.440002V4.22H41.32V6.33H36.4V10.65H42V12.74H29.27V10.65H34.24V0.440002H36.4Z" fill="#1A1A1A"/>
<path id="Vector_23" d="M54.93 1.02002V12.8H43.18V1.02002H54.93ZM48.01 2.91002H45.22V5.98002H48.01V2.91002ZM48.01 7.85002H45.22V10.89H48.01V7.85002ZM52.89 2.91002H49.99V5.98002H52.89V2.91002ZM52.89 7.85002H49.99V10.89H52.89V7.85002Z" fill="#1A1A1A"/>
</g>
</svg>
