<svg width="171" height="13" viewBox="0 0 171 13" fill="none" xmlns="http://www.w3.org/2000/svg">
<g id="logo-saku-hp">
<path id="Vector" d="M7.56 12.85H0.350006V10.45H5.14999V8.85003L0.350006 5.24003V0.0300293H7.56V2.44003H2.75V4.03003L7.56 7.64003V12.85Z" fill="#E62310"/>
<path id="Vector_2" d="M26.78 12.85H19.57V0.0300293H26.78V2.44003H21.98V10.45H26.78V12.85Z" fill="#006EBB"/>
<path id="Vector_3" d="M17.17 0.0300293H9.95999V12.85H17.17V7.64003L15.97 6.44003L17.17 5.24003V0.0300293ZM12.36 2.43003H14.77V4.24003L13.77 5.24003H12.36V2.43003ZM14.77 10.44H12.36V7.64003H13.77L14.77 8.64003V10.45V10.44Z" fill="#009544"/>
<path id="Vector_4" d="M69.36 12.82H71.81L74.24 0.849976H71.8L69.36 12.82Z" fill="#1A1A1A"/>
<path id="Vector_5" d="M79.05 0.849976H76.61C76.61 0.849976 79.65 7.14998 79.65 12.81H82.09C82.09 7.14998 79.05 0.849976 79.05 0.849976Z" fill="#1A1A1A"/>
<path id="Vector_6" d="M102.02 1.26001H96.32V3.38001H102.02V1.26001Z" fill="#1A1A1A"/>
<path id="Vector_7" d="M121.83 1.26H119.48C120.21 11.38 111.75 10.45 110.45 10.49V12.81C112.09 12.76 122.53 13.49 121.84 1.25L121.83 1.26Z" fill="#1A1A1A"/>
<path id="Vector_8" d="M115.71 1.26001H110V3.38001H115.71V1.26001Z" fill="#1A1A1A"/>
<path id="Vector_9" d="M102.02 4.33002H96.32V6.45002H102.02V4.33002Z" fill="#1A1A1A"/>
<path id="Vector_10" d="M106.85 0.390015H105.66V1.92001H106.85V0.390015Z" fill="#1A1A1A"/>
<path id="Vector_11" d="M108.67 0.390015H107.47V1.92001H108.67V0.390015Z" fill="#1A1A1A"/>
<path id="Vector_12" d="M96.76 10.49V12.81C98.34 12.76 108.1 13.43 108.18 2.48999H105.83C105.78 11.3 98.01 10.44 96.75 10.49H96.76Z" fill="#1A1A1A"/>
<path id="Vector_13" d="M157.16 5.82001H148.79V8.15001H157.16V5.82001Z" fill="#1A1A1A"/>
<path id="Vector_14" d="M133.88 0.390015H132.67V1.92001H133.88V0.390015Z" fill="#1A1A1A"/>
<path id="Vector_15" d="M135.68 0.390015H134.47V1.92001H135.68V0.390015Z" fill="#1A1A1A"/>
<path id="Vector_16" d="M132.17 2.49001V1.26001H125.9C125.9 1.26001 125.67 3.84001 123.26 4.92001V7.50001C123.26 7.50001 126.68 6.39001 127.55 3.59001H132.75C132.56 10.97 126.26 10.49 124.04 10.49V12.81C126.53 12.81 135.44 13.16 135.08 2.49001H132.17Z" fill="#1A1A1A"/>
<path id="Vector_17" d="M170.06 1.26H160.96C160.96 1.26 160.73 3.84 158.34 4.92V7.5C158.34 7.5 161.74 6.39 162.61 3.59H167.82C167.61 10.97 161.33 10.49 159.1 10.49V12.81C161.68 12.81 171.15 13.18 170.06 1.25V1.26Z" fill="#1A1A1A"/>
<path id="Vector_18" d="M146.68 3.2C147.56 3.2 148.28 2.48 148.28 1.59C148.28 0.7 147.56 0 146.68 0C145.8 0 145.08 0.72 145.08 1.59C145.08 2.46 145.8 3.2 146.68 3.2ZM146.68 0.96C147.03 0.96 147.32 1.25 147.32 1.59C147.32 1.95 147.03 2.23 146.68 2.23C146.33 2.23 146.04 1.95 146.04 1.59C146.04 1.25 146.32 0.96 146.68 0.96Z" fill="#1A1A1A"/>
<path id="Vector_19" d="M135.49 12.82H137.93L140.38 0.849976H137.92L135.49 12.82Z" fill="#1A1A1A"/>
<path id="Vector_20" d="M144.5 1.58998C144.5 1.32998 144.56 1.07998 144.64 0.849976H142.74C142.74 0.849976 145.76 7.14998 145.76 12.81H148.22C148.22 9.55998 147.22 6.09998 146.37 3.73998C145.33 3.58998 144.51 2.67998 144.51 1.58998H144.5Z" fill="#1A1A1A"/>
<path id="Vector_21" d="M94.72 2.06003H89.85V0.530029H87.49V2.05003H82.63V6.96003H84.99V4.39003H92.18C92.12 10.41 89.61 10.53 84.77 10.45V12.85C92.02 13.07 94.85 11.14 94.71 2.05003L94.72 2.06003Z" fill="#1A1A1A"/>
<path id="Vector_22" d="M65.96 6.25997C66.56 5.28997 67.19 3.63997 67.36 2.90997H65.35C65.24 3.50997 64.52 5.22997 63.9 6.25997H65.95H65.96Z" fill="#1A1A1A"/>
<path id="Vector_23" d="M32.86 0.119995H30.95C30.73 1.74 30.24 2.94 29.22 4.33V8C29.22 8 29.63 7.60999 30.18 6.89V12.81H32.07V3.4C32.43 2.45 32.72 1.35 32.86 0.119995Z" fill="#1A1A1A"/>
<path id="Vector_24" d="M58.92 2.90002H56.8C57.19 3.61002 57.9 5.56002 58.06 6.28002H60.16C59.96 5.52002 59.41 3.74002 58.92 2.90002Z" fill="#1A1A1A"/>
<path id="Vector_25" d="M63.12 6.64997V2.36997H67.98V0.469971H56.23V2.36997H61.03V6.64997H55.74V8.56997H61.03V12.85H63.12V8.56997H68.42V6.64997H63.12Z" fill="#1A1A1A"/>
<path id="Vector_26" d="M38.98 10.53V7.28001H41.46V5.43001H36.53C36.74 4.70001 36.88 3.99001 36.97 3.32001H41.87V1.42001H37.13C37.16 0.590007 37.11 0.0700073 37.11 0.0700073H35.15C35.15 0.290007 35.17 0.770007 35.15 1.42001H32.87V3.32001H35C34.73 5.16001 34.06 7.30001 32.32 8.56001V11.32C34.02 10.29 35.12 8.81001 35.84 7.27001H37.03V10.52H33.5V12.45H41.92V10.52H38.97L38.98 10.53Z" fill="#1A1A1A"/>
<path id="Vector_27" d="M51.48 7.00002C53.46 3.84002 53.58 1.39002 53.58 1.39002H48.72C48.85 1.17002 49.06 0.560024 49.16 0.150024H46.84C46.3 1.79002 44.9 3.60002 43.29 4.53002V7.24002C43.92 6.93002 46.17 5.57002 47.67 3.32002H50.87C50.24 5.61002 48.57 8.71002 42.76 10.43V12.84C46.98 11.61 49.23 9.58002 50.16 8.62002C50.75 9.62002 52.64 11.7 55.63 12.79V10.05C54.88 9.94003 52.94 9.26002 51.48 6.98002V7.00002Z" fill="#1A1A1A"/>
</g>
</svg>
