<svg width="65" height="57" viewBox="0 0 65 57" fill="none" xmlns="http://www.w3.org/2000/svg">
<path d="M57 20.5334L63.5338 26.3035C63.8668 26.6718 64.0739 27.1366 64.125 27.6305C64.0828 28.0609 63.9255 28.472 63.6697 28.8206L61.2861 31.4713C60.9198 31.804 60.4568 32.0111 59.9647 32.0625C59.5332 32.0183 59.1213 31.86 58.7712 31.6038L57 30.0452V53.4375C57 54.3823 56.6247 55.2885 55.9566 55.9566C55.2885 56.6247 54.3823 57 53.4375 57H10.6975C9.75268 57 8.84655 56.6247 8.17845 55.9566C7.51035 55.2885 7.13502 54.3823 7.13502 53.4375V30.0463L5.3649 31.6049C5.01641 31.8614 4.60536 32.0195 4.1748 32.0625C3.67819 32.0125 3.21035 31.8058 2.83887 31.4725L0.455332 28.824C0.182067 28.4842 0.0227528 28.067 0 27.6316C0.0260144 27.1331 0.234439 26.6616 0.585587 26.3068L29.0856 1.14668C29.7847 0.513221 31.1129 0 32.0625 0C33.0121 0 34.3447 0.513221 35.0439 1.14668L46.3125 11.0961V5.34375C46.3125 4.87133 46.5002 4.41827 46.8342 4.08421C47.1683 3.75017 47.6213 3.5625 48.0938 3.5625H55.2188C55.6912 3.5625 56.1442 3.75017 56.4783 4.08421C56.8123 4.41827 57 4.87133 57 5.34375V20.5334Z" fill="#006EBB"/>
<path d="M46.741 30.1258C46.741 28.8938 46.741 23.3218 46.741 22.1318C46.741 21.5718 46.685 20.8438 46.573 20.3118H49.219C49.163 20.8438 49.079 21.4598 49.079 22.1318C49.079 23.3218 49.079 28.8798 49.079 30.1258C49.079 30.5038 49.163 31.6098 49.233 32.2398H46.573C46.671 31.6378 46.741 30.6998 46.741 30.1258ZM48.575 23.9098C50.451 24.4138 53.573 25.5338 54.861 26.1638L53.895 28.5298C52.313 27.7178 50.101 26.8778 48.575 26.3598V23.9098Z" fill="white"/>
<path d="M38.9849 23.0698C39.2649 23.6858 39.9509 25.5058 40.1609 26.1638L38.1309 26.8638C37.9349 26.1638 37.3469 24.5118 36.9689 23.7278L38.9849 23.0698ZM44.2069 24.2178C44.0109 24.7638 43.9129 25.0998 43.8149 25.4358C43.4509 26.7798 42.8629 28.2078 41.9389 29.4118C40.6369 31.1198 38.8729 32.3378 37.1929 32.9818L35.4149 31.1618C36.8989 30.7838 38.9429 29.7198 40.1049 28.2498C41.0289 27.0878 41.6869 25.1838 41.8129 23.4478L44.2069 24.2178ZM35.7369 23.8258C36.1289 24.6098 36.7729 26.2338 37.0529 27.0458L34.9809 27.8158C34.7429 27.0598 34.0709 25.2258 33.6929 24.5538L35.7369 23.8258Z" fill="white"/>
<path d="M31.8591 20.522C31.8311 20.942 31.8031 21.418 31.8031 22.034C31.8031 22.846 31.8031 24.302 31.8031 25.086C31.8031 27.9 31.1451 29.3 30.0811 30.42C29.1431 31.4 27.6731 32.114 26.6511 32.436L24.8731 30.56C26.3291 30.238 27.4211 29.72 28.2611 28.852C29.1991 27.858 29.3951 26.864 29.3951 24.932C29.3951 24.134 29.3951 22.706 29.3951 22.034C29.3951 21.418 29.3531 20.942 29.2971 20.522H31.8591ZM25.3771 20.648C25.3491 20.998 25.3211 21.25 25.3211 21.754C25.3211 22.482 25.3211 25.618 25.3211 26.514C25.3211 26.864 25.3491 27.452 25.3771 27.816H22.9131C22.9271 27.536 22.9831 26.934 22.9831 26.5C22.9831 25.59 22.9831 22.482 22.9831 21.754C22.9831 21.488 22.9691 20.998 22.9271 20.648H25.3771Z" fill="white"/>
<path d="M21.135 21.1799C20.925 21.5299 20.617 22.2299 20.477 22.5799C19.945 23.9659 19.077 25.8419 17.915 27.3679C16.641 29.0339 14.975 30.8259 12.217 32.3799L10.313 30.6579C12.833 29.4399 14.569 27.9559 16.067 25.9679C17.159 24.5259 17.747 23.1539 18.237 21.7259C18.377 21.3199 18.531 20.6899 18.601 20.2979L21.135 21.1799ZM13.267 22.3699C14.667 23.2239 16.557 24.5259 17.803 25.4779C19.357 26.6539 20.869 28.0259 22.017 29.2299L20.267 31.1899C19.021 29.7199 17.761 28.5439 16.249 27.2979C15.227 26.4579 13.701 25.2539 11.811 24.1059L13.267 22.3699Z" fill="white"/>
<path d="M31.8679 51.7564C29.4109 51.7564 27.7519 50.8534 26.6599 49.5934L28.1299 47.6404C29.0539 48.5434 30.1669 49.2574 31.5739 49.2574C33.1699 49.2574 34.2409 48.4594 34.2409 47.0734C34.2409 45.5404 33.3379 44.5954 29.9569 44.5954V42.3694C32.8129 42.3694 33.7369 41.4034 33.7369 40.0174C33.7369 38.7994 32.9809 38.0644 31.6579 38.0644C30.5449 38.0644 29.6419 38.5894 28.7179 39.4504L27.1429 37.5394C28.4869 36.3844 29.9779 35.6494 31.7839 35.6494C34.7869 35.6494 36.8239 37.1194 36.8239 39.7864C36.8239 41.4454 35.8999 42.6844 34.2409 43.3144V43.4194C36.0049 43.9234 37.3489 45.2044 37.3489 47.2624C37.3489 50.1184 34.8499 51.7564 31.8679 51.7564Z" fill="white"/>
</svg>
