<svg width="106" height="38" viewBox="0 0 106 38" fill="none" xmlns="http://www.w3.org/2000/svg">
<g id="logo-ichijo">
<path id="Vector" d="M105.231 0H0V38H105.231V0Z" fill="white"/>
<path id="Vector_2" d="M105.231 0H0V6.11189H105.231V0Z" fill="#D7000F"/>
<path id="Vector_3" d="M105.231 31.8882H0V38.0001H105.231V31.8882Z" fill="#009040"/>
<path id="Vector_4" d="M3.01689 15.2469C3.35895 15.0143 4.54062 14.815 5.75339 14.7486C6.96615 14.6822 7.18383 14.5825 7.80576 14.5825C8.48988 14.5825 13.1855 15.2136 14.6159 15.3133C15.2378 15.3465 17.2902 15.9444 17.7878 16.0773C18.1609 16.1769 19.156 16.2766 19.4048 16.2434C19.6536 16.2434 20.8352 16.1437 20.2133 17.0406C19.5914 17.9042 18.5963 18.7678 18.3164 18.9671C18.0365 19.1664 18.0365 19.4654 16.0464 18.7678C14.0562 18.0703 12.9367 18.0703 11.0709 18.0703C9.01853 18.0703 7.93015 18.2364 7.21493 18.5353C6.40641 18.9007 6.40641 19.0336 4.94488 19.0004C3.63882 19.0004 3.14128 19.1664 2.76812 18.9339C2.61263 18.8343 2.39496 18.635 2.17728 18.4689C1.95961 18.3028 1.92851 18.1367 2.08399 17.6385C2.23948 17.1402 2.30167 16.4094 2.39496 16.1769C2.61263 15.5458 2.79921 15.4129 3.01689 15.2469Z" fill="black"/>
<path id="Vector_5" d="M27.6765 8.80302C28.0496 8.60372 28.5472 8.40442 29.4801 9.30127C29.9465 9.76631 30.102 9.56701 30.3508 9.56701C30.8172 9.56701 32.9318 9.56701 33.5848 9.83274C33.8025 9.93239 34.1446 9.96561 34.5177 9.99883C35.1086 10.0653 36.8811 9.86596 37.0676 11.1614C37.2231 12.2576 36.6945 12.7226 35.9171 12.9883C35.1086 13.2873 34.4866 13.3205 34.3933 13.8852C34.3 14.4499 35.3884 15.2139 35.8238 15.6457C36.228 16.0775 37.7518 17.539 39.0267 17.7716C40.2706 18.0041 40.6126 18.0705 41.0791 18.1037C41.5455 18.1369 42.5095 18.5023 41.3901 19.0338C40.3017 19.5653 39.7419 19.9639 39.431 20.0967C39.1511 20.2628 38.3115 20.4621 37.814 20.0967C37.3164 19.7313 36.4768 18.8013 35.9171 18.1037C35.3573 17.4062 34.0824 16.0443 32.9007 16.0775C32.1544 16.0775 31.8745 16.1771 31.6879 16.4097C31.5324 16.609 31.5014 16.7418 31.9056 16.8415C32.3099 16.9411 33.3671 17.4726 33.4293 17.9376C33.4604 18.4027 33.4293 18.6684 33.7403 18.8013C34.0513 18.9341 34.3 19.067 34.922 19.1002C35.5439 19.1334 35.9793 19.3992 35.9793 19.8974C35.9793 20.3957 35.9482 20.6946 35.3573 20.7278C34.7665 20.7943 33.8025 20.7278 33.4604 20.7278C33.1184 20.7611 33.0251 20.9271 32.9629 21.4586C32.9007 21.9569 32.8696 22.289 32.8385 22.5548C32.8074 22.7541 32.8074 26.9062 32.8074 27.6037C32.8074 28.3013 32.7141 28.6667 32.7141 28.9656C32.7141 29.2313 32.7141 29.6964 32.4964 29.7628C32.2788 29.8292 31.719 29.5967 31.5946 29.3642C31.5324 29.2646 31.4703 28.7663 31.5014 28.3013C31.5014 27.803 31.6257 27.3712 31.6568 27.1055C31.7812 26.0758 31.7501 25.1457 31.6568 24.9464C31.5635 24.7471 31.5324 24.5146 31.6568 24.2156C31.7501 23.9167 31.6568 23.8834 31.6257 23.4516C31.5635 23.0198 31.5635 22.8869 31.4081 22.4551C31.2526 22.0233 31.3459 21.5915 31.3148 21.2593C31.2837 20.9604 31.1593 20.9271 31.0349 20.8607C30.9416 20.8275 30.1331 20.6946 29.5734 20.9271C29.0136 21.1597 28.5161 20.9604 28.2673 20.8275C28.0185 20.6946 27.6765 20.296 28.0185 19.7313C28.1429 19.532 28.2051 19.2995 28.1118 19.1667C28.0185 19.0338 27.521 19.1667 27.3033 19.2663C26.3082 19.7313 25.8418 19.6317 25.593 19.5985C25.3442 19.532 24.6912 19.2331 24.318 18.5688C23.8205 17.6387 23.8205 17.5058 24.7534 17.4726C25.904 17.4726 26.4637 17.4726 26.9924 17.0408C27.521 16.5425 27.8941 16.3432 28.5783 15.9446C29.2624 15.5128 29.2624 15.2471 29.2624 15.0478C29.2624 14.8817 29.1069 14.6492 28.796 14.317C28.485 14.0181 28.2051 13.8852 27.7698 14.2174C27.3655 14.5495 26.2149 15.2803 25.9973 15.4796C25.6552 15.7785 24.6912 15.6789 24.2248 15.5792C23.7583 15.4464 23.4784 14.8485 23.1986 14.4499C22.9187 14.0845 22.3901 13.4202 23.4162 13.5198C24.318 13.6195 25.4064 13.1876 26.1527 12.3904C26.5881 11.9586 27.0234 11.56 27.1478 11.2943C27.2411 11.0285 27.1789 10.4306 27.1478 9.89917C27.1478 9.36771 27.3033 9.03554 27.7698 8.80302H27.6765ZM28.3606 22.123C28.174 22.2226 27.7698 22.2558 27.2411 22.4883C26.7125 22.7209 26.246 23.2523 26.1216 23.5513C25.9973 23.8502 26.0284 24.2156 26.0905 24.4813C26.1216 24.7471 26.9302 25.2785 27.1478 25.2785C27.3655 25.2785 27.6143 25.345 27.8009 25.2785C27.9874 25.2121 27.9563 25.2453 28.174 24.8799C28.3917 24.5478 28.7959 24.2156 28.9825 23.9831C29.1691 23.7838 29.2624 23.3852 29.2624 22.8205C29.2624 22.2558 29.2624 22.123 29.0447 21.9901C28.827 21.8904 28.5472 22.0897 28.4228 22.1562L28.3606 22.123ZM31.066 12.2908C31.066 12.2908 31.6568 12.7558 31.8745 12.7558C32.0611 12.7558 32.2788 12.5233 32.4342 12.3572C32.5897 12.1579 32.5897 11.9586 32.341 11.8257C32.0611 11.7261 31.1904 11.7925 31.0349 11.8257C30.755 11.8922 30.9416 12.1579 31.0971 12.2908H31.066ZM30.4752 18.7016C30.6928 18.602 31.0349 17.9376 31.1282 17.2401C31.2215 16.609 30.9416 16.7418 30.413 17.0076C29.8532 17.3065 28.9203 18.1702 28.6716 18.5355C28.4228 18.9341 28.6716 19.0338 28.9203 18.9674C29.2313 18.9009 30.2264 18.8013 30.5063 18.7016H30.4752ZM34.6732 21.824C34.4866 22.0565 34.7354 22.4219 34.9842 22.8869C35.2329 23.3188 35.6372 24.4813 36.3524 25.046C37.0676 25.6107 37.9072 25.345 38.5292 24.9132C38.9645 24.6142 39.1511 24.4149 39.1511 23.7838C39.1511 23.053 38.2804 22.8205 37.8761 22.7541C37.503 22.6876 35.7305 21.9569 35.4195 21.8904C35.2018 21.824 34.8598 21.6247 34.6732 21.824Z" fill="black"/>
<path id="Vector_6" d="M46.924 11.0282C47.3904 10.8954 51.1531 10.8621 52.5835 11.0282C54.0451 11.1943 55.5377 11.6926 55.8487 11.7258C56.1596 11.759 56.8438 11.8254 57.1858 12.1244C57.5279 12.4233 57.559 12.6891 57.3102 13.2537C57.0614 13.8184 56.9059 14.2835 55.8487 14.1838C54.8225 14.0842 54.3871 13.9845 54.014 14.0177C53.6719 14.0509 53.6408 14.1838 53.4853 14.3167C53.3298 14.4496 52.9878 14.3167 52.6146 14.3831C52.2415 14.4496 52.1171 14.8149 52.3659 15.1803C52.6146 15.5457 53.3609 16.6751 53.8274 17.0405C54.2627 17.4058 54.2316 18.037 54.0451 18.5684C53.8585 19.0667 53.3298 19.7975 54.356 20.0964C55.3822 20.3954 56.1285 20.8272 56.5328 20.9933C56.937 21.1593 58.2431 21.724 58.9583 21.6244C59.9223 21.4915 60.6064 21.7572 60.14 22.5877C59.7046 23.4845 58.9894 24.1489 58.5852 24.3149C58.212 24.481 57.7145 24.78 57.0614 24.2485C56.3773 23.6838 54.9469 23.6174 54.5426 23.5842C54.1384 23.5509 53.3298 23.717 52.8945 23.4513C52.4591 23.1856 51.9927 23.2852 51.2153 23.2852C50.4379 23.2852 49.4428 23.4845 49.1629 23.5177C48.883 23.5177 47.5148 23.5177 47.0172 23.551C46.5197 23.5842 45.4313 23.7835 44.8716 24.1489C44.3118 24.5142 43.9076 24.8132 43.6899 24.3814C43.4722 23.9496 43.1924 23.0859 43.6899 22.1558C44.1564 21.259 45.3691 20.5947 46.8618 20.4618C48.3855 20.3289 49.5983 20.03 50.1891 19.6314C50.7488 19.2328 50.9665 19.1331 51.3397 18.6681C51.6817 18.203 51.775 17.7712 51.4019 17.3394C51.0287 16.9076 50.5623 16.9408 50.5001 15.4128C50.4379 13.8516 49.194 13.9513 48.4166 14.1174C47.6392 14.2835 46.2398 14.7485 45.649 14.217C45.0582 13.6856 44.7783 13.3866 45.338 12.224C45.7423 11.3936 46.3953 11.1943 46.9551 11.0282H46.924Z" fill="black"/>
<path id="Vector_7" d="M66.9824 9.73257C67.4177 9.73257 68.0396 9.89865 68.786 10.3969C69.5012 10.8619 70.6206 11.6259 70.6206 12.6889C70.6206 13.7518 70.092 13.6521 69.8121 14.0175C69.5323 14.3497 69.439 14.8147 69.8432 15.1469C70.2475 15.4791 70.6828 15.7448 71.0249 15.9773C71.367 16.2098 71.8023 16.6417 71.9267 16.9406C72.0822 17.2396 72.331 17.2396 72.6419 17.0735C72.8492 16.9628 73.0047 16.852 73.1084 16.7413C73.2639 16.5752 73.4504 16.4091 73.1084 16.077C72.7663 15.778 72.3932 15.2133 72.4242 14.6154C72.4242 14.0175 72.3621 13.9511 72.02 13.6521C71.6779 13.3532 71.367 12.9214 71.6157 11.8252C71.8645 10.7291 72.6419 10.1312 73.0462 9.83222C73.4504 9.53327 74.5077 9.16788 74.8809 9.86543C75.2851 10.563 75.1296 11.3934 75.5339 11.6259C75.9382 11.8584 76.1869 11.6924 76.5912 11.7256C77.0887 11.7588 78.8612 11.4931 79.2344 12.0245C79.5765 12.556 79.9185 13.2535 79.1722 13.32C78.3015 13.3864 77.2442 13.2203 76.8089 13.7186C76.3735 14.2168 76.3735 14.1836 76.3735 14.8812C76.3735 15.5787 76.2491 16.2763 76.6223 16.6084C76.9954 16.9406 78.0838 18.1364 78.5503 18.5018C79.0478 18.9004 79.2033 18.9336 79.7008 18.9668C80.1984 19.0333 81.5355 19.1329 82.002 19.6644C82.4684 20.1626 82.8727 20.6609 81.8465 20.8934C80.8203 21.1259 79.0789 21.0595 78.8612 20.827C78.4259 20.4284 76.9954 18.4021 76.1247 17.9039C75.2229 17.4389 75.0675 17.2063 74.4144 17.4389C73.7303 17.7046 73.5748 17.771 73.6681 17.9703C73.7614 18.1696 73.7925 18.1364 74.0413 18.4686C74.29 18.8007 74.5077 19.0333 74.6943 19.1994C74.8809 19.3654 75.1607 19.3322 75.4717 19.3322C75.7827 19.3322 76.0625 19.3322 76.4357 19.598C76.8089 19.9301 76.7778 20.1959 76.8711 20.3619C76.9643 20.528 77.182 20.7605 77.493 20.9598C77.804 21.1924 78.0216 21.3917 77.9594 22.3882C77.8972 23.3847 77.6174 23.9826 77.5863 24.5805C77.5863 25.1452 77.2753 26.1084 77.1198 26.3077C76.9333 26.5403 76.7467 26.7728 76.3735 26.4074C76.0315 26.042 75.6583 25.7763 75.4406 25.4773C75.1918 25.1784 74.912 24.7466 75.5339 24.4476C76.1558 24.1154 76.4046 24.1154 76.4046 23.285C76.4046 22.4214 76.4046 21.757 75.9382 21.8235C75.4717 21.8899 74.912 22.521 74.5388 23.0193C74.1657 23.5175 73.1706 24.3812 72.7352 24.8462C72.2999 25.3112 72.0511 25.5105 71.3981 25.1452C70.8694 24.8462 70.7761 24.8462 70.403 24.7466C70.0298 24.6469 69.781 24.1487 70.4963 24.1819C71.1804 24.1819 71.2737 23.9494 71.4914 23.6836C71.7401 23.4179 72.2999 22.7203 72.5797 22.4546C72.8907 22.1556 72.9218 21.9563 72.7041 21.591C72.4864 21.2256 72.5797 21.292 72.4242 21.0263C72.2688 20.7605 72.1444 20.7938 72.2377 20.1959C72.331 19.5647 72.2066 19.0665 72.2377 18.8007C72.2377 18.535 72.2066 18.4686 71.709 18.1696C71.2115 17.8707 71.0249 17.7378 70.5896 17.8375C70.1542 17.9703 69.8121 18.1364 69.3768 18.6014C68.9414 19.0665 68.8792 18.9336 69.0347 19.3987C69.1902 19.8637 69.3146 20.2623 69.2835 21.2588C69.2524 22.2553 69.128 24.4476 68.9103 25.1119C68.7238 25.8095 68.3195 26.6067 67.9153 26.6067C67.511 26.6067 67.0134 26.0752 67.0134 25.0787C67.0134 24.0822 67.1067 23.3847 67.3555 23.0193C67.6043 22.6539 68.1018 22.1889 67.7598 21.6242C67.4177 21.0595 67.1689 20.9598 66.7647 21.4913C66.3293 22.056 65.7696 22.7203 65.4897 22.8864C65.2409 23.0525 64.5568 23.1189 64.1837 22.82C63.8416 22.4878 63.5617 22.1889 63.313 21.7903C63.0642 21.3917 62.7532 20.8934 63.5617 20.8602C64.3702 20.8602 65.0855 20.827 65.8007 20.2291C66.5159 19.6644 66.9202 19.0997 67.1689 18.6679C67.4177 18.2361 67.6976 18.1364 68.1951 18.1364C68.6927 18.1364 68.6927 18.1364 69.0036 17.8707C69.3146 17.5717 69.5012 17.4389 69.7189 17.2396C69.9365 17.0735 70.1853 16.7413 69.7499 16.6084C69.3457 16.4756 69.0036 16.3427 68.3817 16.7081C67.7598 17.1067 66.6092 17.771 66.2671 18.0368C65.9251 18.3025 64.8989 18.5682 64.4946 18.1032C64.0904 17.6714 63.7172 16.9406 64.1837 16.3095C64.6812 15.6452 65.3031 15.6784 65.8318 15.9441C66.3604 16.2098 66.8269 16.0438 67.1378 15.9441C67.4488 15.8445 67.4799 15.4791 67.4799 14.9476C67.4799 14.1504 67.1067 13.9179 66.547 13.2203C65.9873 12.5228 65.6141 11.9581 65.7074 11.327C65.8007 10.7291 65.9251 9.5997 67.0445 9.53327L66.9824 9.73257ZM74.5699 14.7151C74.6943 14.8812 74.8498 14.848 75.0053 14.6487C75.1607 14.4826 75.0053 14.2833 74.8498 14.25C74.6943 14.1836 74.5388 14.25 74.4766 14.3165C74.3211 14.4494 74.4766 14.549 74.601 14.7151H74.5699Z" fill="black"/>
<path id="Vector_8" d="M91.5167 8.86859C92.1387 9.00145 92.7295 9.40006 93.2581 9.79866C93.7868 10.1973 93.9734 10.4298 94.0356 10.9612C94.0977 11.4927 94.1599 11.8249 94.4398 12.3563C94.7197 12.8878 94.7819 12.6885 95.4349 12.6885C96.0568 12.6885 96.4922 12.6885 97.1452 12.7882C97.7982 12.8546 98.7311 12.921 99.3842 13.3861C100.193 13.984 99.3842 14.6483 99.1043 14.9805C98.7933 15.3126 97.8293 15.3459 97.1763 15.3459C96.5233 15.3459 95.7459 15.213 95.3416 15.1798C94.9374 15.1133 94.4398 15.2462 93.9112 15.3126C93.3825 15.4123 93.5069 15.4455 93.7557 15.977C93.9734 16.5084 94.5642 17.1728 94.8441 17.4053C95.1239 17.6378 95.1861 17.8039 95.8702 17.8371C96.5544 17.8703 97.4562 18.3686 98.4202 18.5347C99.3842 18.734 100.068 19.0329 100.721 19.0994C101.343 19.1658 101.934 18.7672 102.214 18.6343C102.494 18.5015 102.867 18.3022 103.116 18.6343C103.365 18.9333 102.774 19.6308 102.401 19.963C102.027 20.2952 101.685 20.4612 101.25 20.4945C100.815 20.4945 100.379 20.3284 100.006 20.3284C99.6329 20.3284 99.1665 20.428 98.6067 20.428C98.047 20.428 97.736 20.2287 97.3007 20.1955C96.8653 20.1623 96.2434 20.1955 95.777 20.1955C95.2794 20.1955 95.2483 20.5609 95.2794 20.9263C95.2794 21.2917 95.1861 21.5574 95.8081 21.5242C96.43 21.5242 97.6428 21.5906 98.2336 21.6903C98.8244 21.8231 99.4464 22.1553 99.8195 22.5871C100.193 23.0522 99.9128 23.5836 99.7573 24.1151C99.6018 24.6798 99.3531 24.7462 99.2909 25.3441C99.2287 25.942 99.0732 26.2742 98.7622 26.9385C98.4513 27.6029 98.047 27.5364 97.6117 27.5032C97.1763 27.47 96.0257 27.3371 95.4971 27.2375C94.9373 27.1378 94.3465 27.2375 94.0045 27.4036C93.6624 27.6029 93.3514 27.7357 92.4185 27.7689C91.4545 27.8354 91.1436 27.5696 90.7704 27.2043C90.3662 26.8389 90.2418 25.7759 90.0863 25.0119C89.9619 24.248 89.5266 23.4508 89.3711 22.9525C89.1534 22.3214 89.2467 22.1885 89.8997 21.8896C90.5527 21.5906 90.957 21.491 92.2009 21.491C93.4447 21.491 93.0094 20.9927 92.9161 20.1955C92.7917 19.3983 92.2941 18.6011 92.0143 17.9036C91.7344 17.1728 91.8588 16.9735 92.0765 16.741C92.2941 16.4752 92.5118 16.2427 92.8539 15.8441C93.227 15.4455 92.8539 15.3126 92.4185 15.2462C91.9521 15.1798 91.9832 15.1798 91.4234 15.2462C90.8948 15.2794 90.8015 15.4123 90.6771 15.7445C90.5216 16.0766 90.5216 16.5417 90.5527 17.1064C90.5527 17.6378 90.3351 18.0364 90.0552 18.4682C89.8064 18.9001 89.4333 19.4315 89.2156 19.963C88.9979 20.4612 88.4382 20.9263 87.5986 21.3249C86.759 21.7235 86.3236 22.4543 86.0126 22.7864C85.7017 23.1186 85.5462 24.1151 85.0175 24.6133C84.4578 25.1116 83.5871 24.8459 83.1518 24.5137C82.7164 24.1815 82.6542 23.7829 83.0896 23.4508C83.5249 23.0854 84.1157 22.8529 84.3956 22.4543C84.7066 22.0889 85.7328 20.9927 86.6035 20.3616C87.4742 19.7305 88.2827 18.6011 88.4693 17.1064C88.5937 16.0102 88.0961 16.0434 87.412 15.8109C86.759 15.5784 86.7901 14.8144 86.7901 14.3161C86.7901 13.8179 87.1321 13.3196 87.4431 13.2532C87.754 13.1868 88.2205 13.1536 88.376 13.0871C88.5315 12.9875 88.718 12.8878 89.1223 12.8878C89.5265 12.8878 90.1485 12.8878 90.646 12.7882C91.1436 12.7217 91.2991 12.6553 90.957 12.2235C90.6149 11.7917 90.5216 11.2934 90.304 10.5959C90.0863 9.89831 90.2418 9.53292 90.4594 9.16754C90.6771 8.83537 90.8948 8.76894 91.5167 8.9018V8.86859ZM91.6722 24.1483C91.1436 24.4473 91.5167 24.8791 92.2009 24.9123C92.6673 24.9123 92.7917 25.2777 93.3825 25.2445C94.0045 25.2445 94.5331 25.2445 95.0306 25.2445C95.5282 25.2445 96.3678 25.2445 96.6788 25.178C96.9897 25.1116 97.0519 24.8459 97.1452 24.5137C97.2385 24.1815 97.1452 23.8494 96.7099 23.8826C96.3367 23.8826 94.9063 23.8826 94.5331 23.8826C93.6624 23.8826 92.1698 23.8494 91.6411 24.1483H91.6722Z" fill="black"/>
</g>
</svg>
